<mxfile host="app.diagrams.net" agent="Mozilla/5.0 (Macintosh; Intel Mac OS X 10_15_7) AppleWebKit/537.36 (KHTML, like Gecko) Chrome/133.0.0.0 Safari/537.36" version="26.0.16">
  <diagram name="第 1 页" id="y9qU5r9g6oZaFZpe4arG">
    <mxGraphModel dx="1026" dy="684" grid="1" gridSize="10" guides="1" tooltips="1" connect="1" arrows="1" fold="1" page="1" pageScale="1" pageWidth="827" pageHeight="1169" math="0" shadow="0">
      <root>
        <mxCell id="0" />
        <mxCell id="1" parent="0" />
        <mxCell id="C1wh0DSBbayOBWf1kdTv-4" style="edgeStyle=orthogonalEdgeStyle;rounded=0;orthogonalLoop=1;jettySize=auto;html=1;entryX=0;entryY=0.5;entryDx=0;entryDy=0;" edge="1" parent="1" source="C1wh0DSBbayOBWf1kdTv-1" target="C1wh0DSBbayOBWf1kdTv-2">
          <mxGeometry relative="1" as="geometry" />
        </mxCell>
        <mxCell id="C1wh0DSBbayOBWf1kdTv-1" value="redis client" style="rounded=1;whiteSpace=wrap;html=1;" vertex="1" parent="1">
          <mxGeometry x="110" y="325" width="80" height="50" as="geometry" />
        </mxCell>
        <mxCell id="C1wh0DSBbayOBWf1kdTv-2" value="" style="rounded=1;whiteSpace=wrap;html=1;" vertex="1" parent="1">
          <mxGeometry x="280" y="290" width="160" height="120" as="geometry" />
        </mxCell>
        <mxCell id="C1wh0DSBbayOBWf1kdTv-3" value="redis server" style="text;html=1;align=center;verticalAlign=middle;whiteSpace=wrap;rounded=0;" vertex="1" parent="1">
          <mxGeometry x="319" y="260" width="90" height="30" as="geometry" />
        </mxCell>
        <mxCell id="C1wh0DSBbayOBWf1kdTv-5" value="key执行相关命令" style="rounded=0;whiteSpace=wrap;html=1;" vertex="1" parent="1">
          <mxGeometry x="314" y="310" width="100" height="30" as="geometry" />
        </mxCell>
        <mxCell id="C1wh0DSBbayOBWf1kdTv-9" style="edgeStyle=orthogonalEdgeStyle;rounded=0;orthogonalLoop=1;jettySize=auto;html=1;entryX=0;entryY=0.5;entryDx=0;entryDy=0;" edge="1" parent="1" source="C1wh0DSBbayOBWf1kdTv-6" target="C1wh0DSBbayOBWf1kdTv-8">
          <mxGeometry relative="1" as="geometry" />
        </mxCell>
        <mxCell id="C1wh0DSBbayOBWf1kdTv-6" value="notifyKeySpaceEvent&lt;div&gt;函数&lt;/div&gt;" style="rounded=0;whiteSpace=wrap;html=1;" vertex="1" parent="1">
          <mxGeometry x="294" y="350" width="140" height="40" as="geometry" />
        </mxCell>
        <mxCell id="C1wh0DSBbayOBWf1kdTv-7" value="set、del等命令" style="text;html=1;align=center;verticalAlign=middle;whiteSpace=wrap;rounded=0;" vertex="1" parent="1">
          <mxGeometry x="190" y="320" width="90" height="30" as="geometry" />
        </mxCell>
        <mxCell id="C1wh0DSBbayOBWf1kdTv-13" style="edgeStyle=orthogonalEdgeStyle;rounded=0;orthogonalLoop=1;jettySize=auto;html=1;entryX=0.675;entryY=1;entryDx=0;entryDy=0;entryPerimeter=0;" edge="1" parent="1" source="C1wh0DSBbayOBWf1kdTv-8" target="C1wh0DSBbayOBWf1kdTv-11">
          <mxGeometry relative="1" as="geometry">
            <Array as="points">
              <mxPoint x="609" y="300" />
              <mxPoint x="609" y="300" />
            </Array>
          </mxGeometry>
        </mxCell>
        <mxCell id="C1wh0DSBbayOBWf1kdTv-8" value="channel频道" style="rounded=1;whiteSpace=wrap;html=1;" vertex="1" parent="1">
          <mxGeometry x="540" y="325" width="110" height="60" as="geometry" />
        </mxCell>
        <mxCell id="C1wh0DSBbayOBWf1kdTv-12" style="edgeStyle=orthogonalEdgeStyle;rounded=0;orthogonalLoop=1;jettySize=auto;html=1;" edge="1" parent="1" source="C1wh0DSBbayOBWf1kdTv-11">
          <mxGeometry relative="1" as="geometry">
            <mxPoint x="580" y="325" as="targetPoint" />
            <Array as="points">
              <mxPoint x="580" y="325" />
            </Array>
          </mxGeometry>
        </mxCell>
        <mxCell id="C1wh0DSBbayOBWf1kdTv-11" value="redis client" style="rounded=1;whiteSpace=wrap;html=1;" vertex="1" parent="1">
          <mxGeometry x="555" y="200" width="80" height="50" as="geometry" />
        </mxCell>
        <mxCell id="C1wh0DSBbayOBWf1kdTv-15" value="订&lt;span style=&quot;color: rgba(0, 0, 0, 0); font-family: monospace; font-size: 0px; text-align: start; text-wrap-mode: nowrap;&quot;&gt;%3CmxGraphModel%3E%3Croot%3E%3CmxCell%20id%3D%220%22%2F%3E%3CmxCell%20id%3D%221%22%20parent%3D%220%22%2F%3E%3CmxCell%20id%3D%222%22%20value%3D%22redis%20client%22%20style%3D%22rounded%3D1%3BwhiteSpace%3Dwrap%3Bhtml%3D1%3B%22%20vertex%3D%221%22%20parent%3D%221%22%3E%3CmxGeometry%20x%3D%22110%22%20y%3D%22325%22%20width%3D%2280%22%20height%3D%2250%22%20as%3D%22geometry%22%2F%3E%3C%2FmxCell%3E%3C%2Froot%3E%3C%2FmxGraphModel%3E&lt;/span&gt;阅" style="text;html=1;align=center;verticalAlign=middle;whiteSpace=wrap;rounded=0;" vertex="1" parent="1">
          <mxGeometry x="520" y="270" width="60" height="30" as="geometry" />
        </mxCell>
        <mxCell id="C1wh0DSBbayOBWf1kdTv-17" value="通知" style="text;html=1;align=center;verticalAlign=middle;whiteSpace=wrap;rounded=0;" vertex="1" parent="1">
          <mxGeometry x="600" y="270" width="60" height="30" as="geometry" />
        </mxCell>
      </root>
    </mxGraphModel>
  </diagram>
</mxfile>
